<svg width="95" height="33" viewBox="0 0 95 33" fill="none" xmlns="http://www.w3.org/2000/svg">
<path d="M10.072 32.0001V20.8641L0.615967 0.704102H8.19997L10.984 7.9041C11.432 9.0881 11.864 10.2401 12.28 11.3601C12.696 12.4481 13.112 13.6001 13.528 14.8161H13.72C14.168 13.6001 14.616 12.4481 15.064 11.3601C15.512 10.2401 15.944 9.0881 16.36 7.9041L19.192 0.704102H26.584L17.128 20.8641V32.0001H10.072Z" fill="black"/>
<path d="M33.967 32.0001L25.951 8.1921H33.055L36.127 19.4241C36.447 20.6081 36.751 21.8241 37.039 23.0721C37.359 24.2881 37.679 25.5201 37.999 26.7681H38.191C38.479 25.5201 38.767 24.2881 39.055 23.0721C39.375 21.8241 39.695 20.6081 40.015 19.4241L43.135 8.1921H49.903L42.127 32.0001H33.967Z" fill="black"/>
<path d="M63.901 32.5761C61.629 32.5761 59.581 32.0801 57.757 31.0881C55.933 30.0961 54.493 28.6721 53.437 26.8161C52.381 24.9601 51.853 22.7201 51.853 20.0961C51.853 17.5041 52.381 15.2801 53.437 13.4241C54.525 11.5681 55.933 10.1441 57.661 9.1521C59.389 8.1281 61.197 7.6161 63.085 7.6161C65.357 7.6161 67.229 8.1281 68.701 9.1521C70.205 10.1441 71.325 11.5041 72.061 13.2321C72.829 14.9281 73.213 16.8641 73.213 19.0401C73.213 19.6481 73.181 20.2561 73.117 20.8641C73.053 21.4401 72.989 21.8721 72.925 22.1601H58.669C58.989 23.8881 59.709 25.1681 60.829 26.0001C61.949 26.8001 63.293 27.2001 64.861 27.2001C66.557 27.2001 68.269 26.6721 69.997 25.6161L72.349 29.8881C71.133 30.7201 69.773 31.3761 68.269 31.8561C66.765 32.3361 65.309 32.5761 63.901 32.5761ZM58.621 17.5041H67.213C67.213 16.1921 66.893 15.1201 66.253 14.2881C65.645 13.4241 64.637 12.9921 63.229 12.9921C62.141 12.9921 61.165 13.3761 60.301 14.1441C59.437 14.8801 58.877 16.0001 58.621 17.5041Z" fill="black"/>
<path d="M85.0967 32.5761C83.5287 32.5761 81.9127 32.2721 80.2487 31.6641C78.6167 31.0561 77.1927 30.2561 75.9767 29.2641L79.1447 24.8481C80.2327 25.6481 81.2727 26.2721 82.2647 26.7201C83.2887 27.1361 84.2967 27.3441 85.2887 27.3441C86.3447 27.3441 87.1127 27.1681 87.5927 26.8161C88.0727 26.4321 88.3127 25.9361 88.3127 25.3281C88.3127 24.7841 88.0727 24.3361 87.5927 23.9841C87.1447 23.6321 86.5527 23.3121 85.8167 23.0241C85.0807 22.7041 84.2967 22.3841 83.4647 22.0641C82.5047 21.6801 81.5447 21.2001 80.5847 20.6241C79.6567 20.0481 78.8727 19.3121 78.2327 18.4161C77.5927 17.4881 77.2727 16.3681 77.2727 15.0561C77.2727 12.8481 78.1047 11.0561 79.7687 9.6801C81.4647 8.3041 83.6727 7.6161 86.3927 7.6161C88.2167 7.6161 89.8167 7.9361 91.1927 8.5761C92.6007 9.1841 93.8007 9.8721 94.7927 10.6401L91.6247 14.8641C90.7927 14.2241 89.9607 13.7281 89.1287 13.3761C88.2967 13.0241 87.4647 12.8481 86.6327 12.8481C84.8087 12.8481 83.8967 13.4721 83.8967 14.7201C83.8967 15.4881 84.3447 16.0801 85.2407 16.4961C86.1687 16.8801 87.2407 17.2961 88.4567 17.7441C89.4807 18.0961 90.4727 18.5601 91.4327 19.1361C92.4247 19.6801 93.2407 20.4161 93.8807 21.3441C94.5527 22.2401 94.8887 23.4241 94.8887 24.8961C94.8887 27.0401 94.0567 28.8641 92.3927 30.3681C90.7287 31.8401 88.2967 32.5761 85.0967 32.5761Z" fill="black"/>
</svg>
