<svg width="112" height="35" viewBox="0 0 112 35" fill="none" xmlns="http://www.w3.org/2000/svg">
<path d="M13.2 33.9999C12.88 33.9999 12.592 33.8879 12.336 33.6639C12.112 33.4079 12 33.1199 12 32.7999V22.4799L0.863971 1.9359C0.831971 1.8399 0.799971 1.7599 0.767971 1.6959C0.735971 1.5999 0.719971 1.5039 0.719971 1.4079C0.719971 1.1519 0.815971 0.927903 1.00797 0.735904C1.23197 0.511903 1.48797 0.399902 1.77597 0.399902H7.77597C8.25597 0.399902 8.62397 0.527903 8.87997 0.783903C9.16797 1.0079 9.35997 1.2159 9.45597 1.4079L16.32 13.7919L23.232 1.4079C23.328 1.2159 23.504 1.0079 23.76 0.783903C24.048 0.527903 24.432 0.399902 24.912 0.399902H30.912C31.2 0.399902 31.44 0.511903 31.632 0.735904C31.824 0.927903 31.92 1.1519 31.92 1.4079C31.92 1.5039 31.904 1.5999 31.872 1.6959C31.872 1.7599 31.856 1.8399 31.824 1.9359L20.688 22.4799V32.7999C20.688 33.1199 20.56 33.4079 20.304 33.6639C20.08 33.8879 19.792 33.9999 19.44 33.9999H13.2Z" fill="black"/>
<path d="M42.0401 33.9999C41.5601 33.9999 41.2081 33.8879 40.9841 33.6639C40.7601 33.4079 40.5681 33.1199 40.4081 32.7999L31.3361 10.5279C31.2721 10.3999 31.2401 10.2559 31.2401 10.0959C31.2401 9.8079 31.3361 9.5679 31.5281 9.3759C31.7521 9.1519 32.0241 9.0399 32.3441 9.0399H37.7681C38.1841 9.0399 38.5041 9.1519 38.7281 9.3759C38.9521 9.5999 39.0961 9.8239 39.1601 10.0479L44.5841 24.7839L50.0561 10.0479C50.1201 9.8239 50.2641 9.5999 50.4881 9.3759C50.7121 9.1519 51.0321 9.0399 51.4481 9.0399H56.8721C57.1601 9.0399 57.4161 9.1519 57.6401 9.3759C57.8641 9.5679 57.9761 9.8079 57.9761 10.0959C57.9761 10.2559 57.9441 10.3999 57.8801 10.5279L48.8081 32.7999C48.6801 33.1199 48.4881 33.4079 48.2321 33.6639C48.0081 33.8879 47.6401 33.9999 47.1281 33.9999H42.0401Z" fill="black"/>
<path d="M72.2895 34.4799C68.5135 34.4799 65.5055 33.4559 63.2655 31.4079C61.0255 29.3599 59.8575 26.3199 59.7615 22.2879C59.7615 22.0639 59.7615 21.7759 59.7615 21.4239C59.7615 21.0719 59.7615 20.7999 59.7615 20.6079C59.8575 18.0799 60.4175 15.9199 61.4415 14.1279C62.4975 12.3039 63.9375 10.9279 65.7615 9.9999C67.6175 9.0399 69.7775 8.5599 72.2415 8.5599C75.0575 8.5599 77.3775 9.1199 79.2015 10.2399C81.0575 11.3599 82.4495 12.8799 83.3775 14.7999C84.3055 16.7199 84.7695 18.9119 84.7695 21.3759V22.5279C84.7695 22.8799 84.6575 23.1679 84.4335 23.3919C84.2095 23.6159 83.9215 23.7279 83.5695 23.7279H68.2095C68.2095 23.7599 68.2095 23.8079 68.2095 23.8719C68.2095 23.9359 68.2095 23.9999 68.2095 24.0639C68.2415 24.9919 68.4015 25.8399 68.6895 26.6079C69.0095 27.3759 69.4575 27.9839 70.0335 28.4319C70.6415 28.8799 71.3775 29.1039 72.2415 29.1039C72.8815 29.1039 73.4095 29.0079 73.8255 28.8159C74.2735 28.5919 74.6415 28.3519 74.9295 28.0959C75.2175 27.8079 75.4415 27.5679 75.6015 27.3759C75.8895 27.0239 76.1135 26.8159 76.2735 26.7519C76.4655 26.6559 76.7535 26.6079 77.1375 26.6079H83.0895C83.4095 26.6079 83.6655 26.7039 83.8575 26.8959C84.0815 27.0879 84.1775 27.3439 84.1455 27.6639C84.1135 28.2079 83.8415 28.8639 83.3295 29.6319C82.8175 30.3999 82.0655 31.1679 81.0735 31.9359C80.1135 32.6719 78.8975 33.2799 77.4255 33.7599C75.9535 34.2399 74.2415 34.4799 72.2895 34.4799ZM68.2095 18.9759H76.3215V18.8799C76.3215 17.8239 76.1615 16.9279 75.8415 16.1919C75.5535 15.4239 75.0895 14.8319 74.4495 14.4159C73.8415 13.9999 73.1055 13.7919 72.2415 13.7919C71.4095 13.7919 70.6895 13.9999 70.0815 14.4159C69.4735 14.8319 69.0095 15.4239 68.6895 16.1919C68.3695 16.9279 68.2095 17.8239 68.2095 18.8799V18.9759Z" fill="black"/>
<path d="M99.5415 34.4799C97.4615 34.4799 95.6855 34.2559 94.2135 33.8079C92.7735 33.3279 91.5895 32.7519 90.6615 32.0799C89.7655 31.4079 89.0935 30.7199 88.6455 30.0159C88.1975 29.2799 87.9575 28.6399 87.9255 28.0959C87.8935 27.7439 88.0055 27.4559 88.2615 27.2319C88.5175 27.0079 88.7895 26.8959 89.0775 26.8959H94.5495C94.6455 26.8959 94.7255 26.9119 94.7895 26.9439C94.8855 26.9759 94.9815 27.0399 95.0775 27.1359C95.4935 27.3599 95.9095 27.6479 96.3255 27.9999C96.7415 28.3199 97.2215 28.6079 97.7655 28.8639C98.3095 29.1199 98.9655 29.2479 99.7335 29.2479C100.629 29.2479 101.381 29.0719 101.989 28.7199C102.597 28.3359 102.901 27.8079 102.901 27.1359C102.901 26.6239 102.757 26.2079 102.469 25.8879C102.181 25.5359 101.589 25.1999 100.693 24.8799C99.8295 24.5599 98.5175 24.2399 96.7575 23.9199C95.0935 23.5359 93.6375 23.0399 92.3895 22.4319C91.1415 21.7919 90.1815 20.9759 89.5095 19.9839C88.8375 18.9599 88.5015 17.7279 88.5015 16.2879C88.5015 15.0079 88.9175 13.7759 89.7495 12.5919C90.5815 11.4079 91.7975 10.4479 93.3975 9.7119C94.9975 8.9439 96.9815 8.5599 99.3495 8.5599C101.173 8.5599 102.773 8.7839 104.149 9.2319C105.525 9.6479 106.677 10.1919 107.605 10.8639C108.533 11.5359 109.237 12.2239 109.717 12.9279C110.197 13.6319 110.453 14.2719 110.485 14.8479C110.517 15.1679 110.421 15.4559 110.197 15.7119C109.973 15.9359 109.717 16.0479 109.429 16.0479H104.437C104.309 16.0479 104.181 16.0319 104.053 15.9999C103.925 15.9359 103.813 15.8719 103.717 15.8079C103.333 15.6159 102.949 15.3599 102.565 15.0399C102.181 14.7199 101.733 14.4319 101.221 14.1759C100.709 13.9199 100.069 13.7919 99.3015 13.7919C98.4375 13.7919 97.7655 13.9839 97.2855 14.3679C96.8055 14.7519 96.5655 15.2479 96.5655 15.8559C96.5655 16.2719 96.6935 16.6559 96.9495 17.0079C97.2375 17.3599 97.7975 17.6799 98.6295 17.9679C99.4935 18.2559 100.821 18.5759 102.613 18.9279C104.821 19.2799 106.581 19.8559 107.893 20.6559C109.205 21.4239 110.133 22.3359 110.677 23.3919C111.253 24.4159 111.541 25.5039 111.541 26.6559C111.541 28.1919 111.077 29.5519 110.149 30.7359C109.221 31.9199 107.861 32.8479 106.069 33.5199C104.309 34.1599 102.133 34.4799 99.5415 34.4799Z" fill="black"/>
</svg>
